<svg width="1161" height="112" viewBox="0 0 1161 112" fill="none" xmlns="http://www.w3.org/2000/svg">
<path d="M-37.2073 46.5056L-42 41.7138L22.5668 37.4011L30.7288 41.7138L-37.2073 46.5056Z" stroke="black" stroke-opacity="0.1" stroke-miterlimit="10"/>
<path d="M-31.8122 51.8708L-37.1922 46.4916L30.7288 41.6998L39.8629 46.5225L-31.8122 51.8708Z" stroke="black" stroke-opacity="0.1" stroke-miterlimit="10"/>
<path d="M30.7288 41.7151L22.5668 37.4024L81.3975 33.4608L92.3264 37.3561L30.7288 41.7151Z" stroke="black" stroke-opacity="0.1" stroke-miterlimit="10"/>
<path d="M39.8629 46.5225L30.7288 41.6997L92.3264 37.3561L104.477 41.6842L39.8629 46.5225Z" stroke="black" stroke-opacity="0.1" stroke-miterlimit="10"/>
<path d="M92.1875 37.3718L81.2586 33.4765L135.129 29.8749L148.298 33.4146L92.1875 37.3718Z" stroke="black" stroke-opacity="0.1" stroke-miterlimit="10"/>
<path d="M104.336 41.6996L92.1724 37.356L148.283 33.3989L162.891 37.3251L104.336 41.6996Z" stroke="black" stroke-opacity="0.1" stroke-miterlimit="10"/>
<path d="M148.298 33.4135L135.129 29.8738L184.593 26.5659L199.632 29.7965L148.298 33.4135Z" stroke="black" stroke-opacity="0.1" stroke-miterlimit="10"/>
<path d="M162.891 37.3254L148.283 33.3992L199.602 29.7821L216.172 33.3528L162.891 37.3254Z" stroke="black" stroke-opacity="0.1" stroke-miterlimit="10"/>
<path d="M-25.7228 57.9776L-31.8289 51.8719L39.8478 46.5236L50.1428 51.9492L-25.7228 57.9776Z" stroke="black" stroke-opacity="0.1" stroke-miterlimit="10"/>
<path d="M-18.7352 64.9487L-25.7228 57.9619L50.1277 51.9335L61.7979 58.101L-18.7352 64.9487Z" stroke="black" stroke-opacity="0.1" stroke-miterlimit="10"/>
<path d="M50.1428 51.9481L39.8478 46.5225L104.46 41.6998L118.079 46.5534L50.1428 51.9481Z" stroke="black" stroke-opacity="0.1" stroke-miterlimit="10"/>
<path d="M61.7978 58.0993L50.1276 51.9317L118.064 46.537L133.397 52.009L61.7978 58.0993Z" stroke="black" stroke-opacity="0.1" stroke-miterlimit="10"/>
<path d="M117.908 46.5688L104.306 41.6997L162.859 37.3252L179.121 41.6997L117.908 46.5688Z" stroke="black" stroke-opacity="0.1" stroke-miterlimit="10"/>
<path d="M133.227 52.025L117.893 46.553L179.089 41.6839L197.299 46.5839L133.227 52.025Z" stroke="black" stroke-opacity="0.1" stroke-miterlimit="10"/>
<path d="M179.121 41.6992L162.859 37.3247L216.157 33.3521L234.536 37.2938L179.121 41.6992Z" stroke="black" stroke-opacity="0.1" stroke-miterlimit="10"/>
<path d="M197.299 46.5845L179.089 41.6845L234.505 37.2791L254.955 41.6845L197.299 46.5845Z" stroke="black" stroke-opacity="0.1" stroke-miterlimit="10"/>
<path d="M199.493 29.7971L184.469 26.5665L230.084 23.5214L246.624 26.4738L199.493 29.7971Z" stroke="black" stroke-opacity="0.1" stroke-miterlimit="10"/>
<path d="M216.048 33.3529L199.478 29.7977L246.592 26.4589L264.77 29.7204L216.048 33.3529Z" stroke="black" stroke-opacity="0.1" stroke-miterlimit="10"/>
<path d="M246.624 26.4744L230.084 23.522L272.253 20.6932L290.044 23.4138L246.624 26.4744Z" stroke="black" stroke-opacity="0.1" stroke-miterlimit="10"/>
<path d="M264.77 29.7204L246.592 26.4589L290.012 23.3983L309.489 26.3662L264.77 29.7204Z" stroke="black" stroke-opacity="0.1" stroke-miterlimit="10"/>
<path d="M289.95 23.4131L272.159 20.708L311.283 18.0803L330.094 20.5844L289.95 23.4131Z" stroke="black" stroke-opacity="0.1" stroke-miterlimit="10"/>
<path d="M309.381 26.3802L289.92 23.4123L330.048 20.5836L350.559 23.3041L309.381 26.3802Z" stroke="black" stroke-opacity="0.1" stroke-miterlimit="10"/>
<path d="M330.094 20.5836L311.283 18.0795L347.653 15.6526L367.3 17.9558L330.094 20.5836Z" stroke="black" stroke-opacity="0.1" stroke-miterlimit="10"/>
<path d="M350.559 23.3061L330.048 20.5856L367.254 17.9578L388.616 20.4619L350.559 23.3061Z" stroke="black" stroke-opacity="0.1" stroke-miterlimit="10"/>
<path d="M234.397 37.3092L216.033 33.3521L264.755 29.7195L284.803 33.2902L234.397 37.3092Z" stroke="black" stroke-opacity="0.1" stroke-miterlimit="10"/>
<path d="M254.816 41.7008L234.365 37.2954L284.772 33.2919L307 37.2645L254.816 41.7008Z" stroke="black" stroke-opacity="0.1" stroke-miterlimit="10"/>
<path d="M284.803 33.2904L264.755 29.7197L309.474 26.3654L330.867 29.6424L284.803 33.2904Z" stroke="black" stroke-opacity="0.1" stroke-miterlimit="10"/>
<path d="M307 37.2643L284.772 33.2917L330.82 29.6282L354.423 33.2298L307 37.2643Z" stroke="black" stroke-opacity="0.1" stroke-miterlimit="10"/>
<path d="M330.759 29.643L309.366 26.3815L350.544 23.3054L373.004 26.2887L330.759 29.643Z" stroke="black" stroke-opacity="0.1" stroke-miterlimit="10"/>
<path d="M354.331 33.2454L330.712 29.6438L372.957 26.2741L397.642 29.5511L354.331 33.2454Z" stroke="black" stroke-opacity="0.1" stroke-miterlimit="10"/>
<path d="M373.004 26.2882L350.544 23.3049L388.6 20.4608L411.895 23.1967L373.004 26.2882Z" stroke="black" stroke-opacity="0.1" stroke-miterlimit="10"/>
<path d="M397.642 29.5512L372.957 26.2742L411.833 23.1827L437.353 26.1815L397.642 29.5512Z" stroke="black" stroke-opacity="0.1" stroke-miterlimit="10"/>
<path d="M-10.6985 73.0017L-18.7518 64.9483L61.7978 58.1006L75.1526 65.1492L-10.6985 73.0017Z" stroke="black" stroke-opacity="0.1" stroke-miterlimit="10"/>
<path d="M-1.30024 82.3687L-10.6985 72.986L75.1375 65.1336L90.5648 73.2797L-1.30024 82.3687Z" stroke="black" stroke-opacity="0.1" stroke-miterlimit="10"/>
<path d="M75.1526 65.1483L61.7978 58.0996L133.398 52.0248L150.817 58.2387L75.1526 65.1483Z" stroke="black" stroke-opacity="0.1" stroke-miterlimit="10"/>
<path d="M90.5647 73.2787L75.1374 65.1326L150.787 58.2231L170.743 65.349L90.5647 73.2787Z" stroke="black" stroke-opacity="0.1" stroke-miterlimit="10"/>
<path d="M150.632 58.2542L133.227 52.0403L197.299 46.5838L217.842 52.1176L150.632 58.2542Z" stroke="black" stroke-opacity="0.1" stroke-miterlimit="10"/>
<path d="M170.557 65.3652L150.617 58.2392L217.81 52.1026L241.152 58.3783L170.557 65.3652Z" stroke="black" stroke-opacity="0.1" stroke-miterlimit="10"/>
<path d="M217.842 52.1177L197.299 46.5839L254.97 41.6839L277.925 46.6303L217.842 52.1177Z" stroke="black" stroke-opacity="0.1" stroke-miterlimit="10"/>
<path d="M241.152 58.3779L217.81 52.1022L277.878 46.6147L303.785 52.1795L241.152 58.3779Z" stroke="black" stroke-opacity="0.1" stroke-miterlimit="10"/>
<path d="M9.76757 93.4665L-1.33044 82.368L90.5331 73.279L108.557 82.8008L9.76757 93.4665Z" stroke="black" stroke-opacity="0.1" stroke-miterlimit="10"/>
<path d="M23.0921 106.761L9.76757 93.4368L108.542 82.7711L129.873 94.0242L23.0921 106.761Z" stroke="black" stroke-opacity="0.1" stroke-miterlimit="10"/>
<path d="M108.557 82.8016L90.5331 73.2797L170.711 65.35L193.789 73.5889L108.557 82.8016Z" stroke="black" stroke-opacity="0.1" stroke-miterlimit="10"/>
<path d="M129.873 94.0232L108.542 82.7702L193.759 73.5575L220.763 83.203L129.873 94.0232Z" stroke="black" stroke-opacity="0.1" stroke-miterlimit="10"/>
<path d="M193.603 73.6041L170.526 65.3653L241.135 58.3785L267.908 65.5817L193.603 73.6041Z" stroke="black" stroke-opacity="0.1" stroke-miterlimit="10"/>
<path d="M220.562 83.2336L193.558 73.5881L267.861 65.5502L298.87 73.8973L220.562 83.2336Z" stroke="black" stroke-opacity="0.1" stroke-miterlimit="10"/>
<path d="M267.908 65.5823L241.135 58.3791L303.77 52.1807L333.248 58.5182L267.908 65.5823Z" stroke="black" stroke-opacity="0.1" stroke-miterlimit="10"/>
<path d="M298.87 73.8971L267.861 65.5501L333.186 58.5015L367.022 65.7665L298.87 73.8971Z" stroke="black" stroke-opacity="0.1" stroke-miterlimit="10"/>
<path d="M277.77 46.6305L254.831 41.6995L307.015 37.2632L331.809 41.6995L277.77 46.6305Z" stroke="black" stroke-opacity="0.1" stroke-miterlimit="10"/>
<path d="M303.631 52.195L277.724 46.6148L331.747 41.6839L359.571 46.6457L303.631 52.195Z" stroke="black" stroke-opacity="0.1" stroke-miterlimit="10"/>
<path d="M331.809 41.6998L307.015 37.2635L354.455 33.2291L380.656 37.2326L331.809 41.6998Z" stroke="black" stroke-opacity="0.1" stroke-miterlimit="10"/>
<path d="M359.571 46.6453L331.747 41.6835L380.594 37.2162L409.839 41.6835L359.571 46.6453Z" stroke="black" stroke-opacity="0.1" stroke-miterlimit="10"/>
<path d="M380.547 37.2479L354.346 33.2444L397.659 29.5655L424.926 33.1825L380.547 37.2479Z" stroke="black" stroke-opacity="0.1" stroke-miterlimit="10"/>
<path d="M409.731 41.6842L380.485 37.2324L424.879 33.1671L455.145 37.2015L409.731 41.6842Z" stroke="black" stroke-opacity="0.1" stroke-miterlimit="10"/>
<path d="M424.926 33.1826L397.659 29.5655L437.369 26.1803L465.44 29.4882L424.926 33.1826Z" stroke="black" stroke-opacity="0.1" stroke-miterlimit="10"/>
<path d="M455.145 37.2014L424.879 33.167L465.378 29.4727L496.386 33.1052L455.145 37.2014Z" stroke="black" stroke-opacity="0.1" stroke-miterlimit="10"/>
<path d="M333.077 58.5329L303.599 52.1953L359.556 46.6616L390.981 52.2726L333.077 58.5329Z" stroke="black" stroke-opacity="0.1" stroke-miterlimit="10"/>
<path d="M366.851 65.7817L333.015 58.5167L390.919 52.2564L426.719 58.6558L366.851 65.7817Z" stroke="black" stroke-opacity="0.1" stroke-miterlimit="10"/>
<path d="M390.981 52.2723L359.556 46.6612L409.824 41.6839L442.655 46.6921L390.981 52.2723Z" stroke="black" stroke-opacity="0.1" stroke-miterlimit="10"/>
<path d="M426.719 58.657L390.919 52.2575L442.593 46.6774L479.723 52.3348L426.719 58.657Z" stroke="black" stroke-opacity="0.1" stroke-miterlimit="10"/>
<path d="M442.548 46.707L409.716 41.6988L455.13 37.2007L488.951 41.6834L442.548 46.707Z" stroke="black" stroke-opacity="0.1" stroke-miterlimit="10"/>
<path d="M479.614 52.3499L442.469 46.6925L488.874 41.6688L526.868 46.7234L479.614 52.3499Z" stroke="black" stroke-opacity="0.1" stroke-miterlimit="10"/>
<path d="M488.95 41.6838L455.13 37.2012L496.37 33.1204L530.841 37.1548L488.95 41.6838Z" stroke="black" stroke-opacity="0.1" stroke-miterlimit="10"/>
<path d="M526.868 46.7243L488.874 41.6697L530.748 37.1561L569.268 41.6697L526.868 46.7243Z" stroke="black" stroke-opacity="0.1" stroke-miterlimit="10"/>
<path d="M39.3376 123.052L23.062 106.776L129.858 94.0388L155.517 107.595L39.3376 123.052Z" stroke="black" stroke-opacity="0.1" stroke-miterlimit="10"/>
<path d="M59.68 143.333L39.3376 123.006L155.486 107.549L186.912 124.135L59.68 143.333Z" stroke="black" stroke-opacity="0.1" stroke-miterlimit="10"/>
<path d="M155.517 107.595L129.858 94.0391L220.748 83.2034L252.775 94.642L155.517 107.595Z" stroke="black" stroke-opacity="0.1" stroke-miterlimit="10"/>
<path d="M186.912 124.135L155.486 107.549L252.728 94.6108L291.312 108.383L186.912 124.135Z" stroke="black" stroke-opacity="0.1" stroke-miterlimit="10"/>
<path d="M252.574 94.6729L220.547 83.2343L298.87 73.8979L335.225 83.6826L252.574 94.6729Z" stroke="black" stroke-opacity="0.1" stroke-miterlimit="10"/>
<path d="M291.094 108.429L252.512 94.6411L335.148 83.6508L378.321 95.2594L291.094 108.429Z" stroke="black" stroke-opacity="0.1" stroke-miterlimit="10"/>
<path d="M335.225 83.682L298.87 73.8974L367.037 65.7822L406.285 74.222L335.225 83.682Z" stroke="black" stroke-opacity="0.1" stroke-miterlimit="10"/>
<path d="M378.321 95.2601L335.148 83.6515L406.206 74.1915L452.286 84.0998L378.321 95.2601Z" stroke="black" stroke-opacity="0.1" stroke-miterlimit="10"/>
<path d="M226.297 144.956L186.88 124.15L291.28 108.384L338.688 125.31L226.297 144.956Z" stroke="black" stroke-opacity="0.1" stroke-miterlimit="10"/>
<path d="M338.457 125.37L291.064 108.429L378.306 95.2589L430.46 109.294L338.457 125.37Z" stroke="black" stroke-opacity="0.1" stroke-miterlimit="10"/>
<path d="M397.969 146.609L338.348 125.308L430.336 109.248L494.561 126.514L397.969 146.609Z" stroke="black" stroke-opacity="0.1" stroke-miterlimit="10"/>
<path d="M430.46 109.294L378.306 95.2588L452.254 84.0985L507.113 95.8926L430.46 109.294Z" stroke="black" stroke-opacity="0.1" stroke-miterlimit="10"/>
<path d="M494.561 126.515L430.336 109.249L506.989 95.863L573.38 110.13L494.561 126.515Z" stroke="black" stroke-opacity="0.1" stroke-miterlimit="10"/>
<path d="M406.114 74.2363L366.851 65.7965L426.734 58.6552L467.897 66.0129L406.114 74.2363Z" stroke="black" stroke-opacity="0.1" stroke-miterlimit="10"/>
<path d="M452.1 84.1147L406.022 74.2065L467.805 65.9985L515.615 74.5311L452.1 84.1147Z" stroke="black" stroke-opacity="0.1" stroke-miterlimit="10"/>
<path d="M467.897 66.0147L426.734 58.6569L479.738 52.3502L522.092 58.796L467.897 66.0147Z" stroke="black" stroke-opacity="0.1" stroke-miterlimit="10"/>
<path d="M515.615 74.5312L467.805 65.9986L521.998 58.78L570.736 66.215L515.615 74.5312Z" stroke="black" stroke-opacity="0.1" stroke-miterlimit="10"/>
<path d="M521.983 58.8274L479.629 52.3661L526.883 46.7241L569.917 52.4434L521.983 58.8274Z" stroke="black" stroke-opacity="0.1" stroke-miterlimit="10"/>
<path d="M570.628 66.247L521.891 58.7965L569.825 52.428L618.933 58.9511L570.628 66.247Z" stroke="black" stroke-opacity="0.1" stroke-miterlimit="10"/>
<path d="M569.917 52.4427L526.883 46.7234L569.283 41.6688L612.611 46.7543L569.917 52.4427Z" stroke="black" stroke-opacity="0.1" stroke-miterlimit="10"/>
<path d="M618.933 58.9489L569.825 52.4258L612.519 46.7374L661.611 52.5031L618.933 58.9489Z" stroke="black" stroke-opacity="0.1" stroke-miterlimit="10"/>
<path d="M506.927 95.9239L452.07 84.1298L515.6 74.5461L571.819 84.5781L506.927 95.9239Z" stroke="black" stroke-opacity="0.1" stroke-miterlimit="10"/>
<path d="M573.179 110.161L506.804 95.8942L571.68 84.5484L638.719 96.528L573.179 110.161Z" stroke="black" stroke-opacity="0.1" stroke-miterlimit="10"/>
<path d="M571.819 84.5777L515.6 74.5458L570.721 66.2142L627.434 74.8704L571.819 84.5777Z" stroke="black" stroke-opacity="0.1" stroke-miterlimit="10"/>
<path d="M638.719 96.5275L571.68 84.5479L627.295 74.8406L694.057 85.0271L638.719 96.5275Z" stroke="black" stroke-opacity="0.1" stroke-miterlimit="10"/>
<path d="M627.327 74.888L570.613 66.2473L618.932 58.9514L675.538 66.4637L627.327 74.888Z" stroke="black" stroke-opacity="0.1" stroke-miterlimit="10"/>
<path d="M693.948 85.0567L627.187 74.8702L675.399 66.4458L741.326 75.2102L693.948 85.0567Z" stroke="black" stroke-opacity="0.1" stroke-miterlimit="10"/>
<path d="M675.538 66.4623L618.932 58.95L661.596 52.5042L717.722 59.1046L675.538 66.4623Z" stroke="black" stroke-opacity="0.1" stroke-miterlimit="10"/>
<path d="M741.326 75.2113L675.399 66.4468L717.583 59.0736L782.319 66.6787L741.326 75.2113Z" stroke="black" stroke-opacity="0.1" stroke-miterlimit="10"/>
<path d="M575.745 148.357L494.623 126.546L573.442 110.161L655.475 127.783L575.745 148.357Z" stroke="black" stroke-opacity="0.1" stroke-miterlimit="10"/>
<path d="M655.274 127.828L573.241 110.191L638.796 96.5574L720.164 111.087L655.274 127.828Z" stroke="black" stroke-opacity="0.1" stroke-miterlimit="10"/>
<path d="M758.932 150.12L655.072 127.768L719.948 111.043L820.715 129.051L758.932 150.12Z" stroke="black" stroke-opacity="0.1" stroke-miterlimit="10"/>
<path d="M720.164 111.089L638.796 96.5586L694.134 85.0427L773.956 97.2233L720.164 111.089Z" stroke="black" stroke-opacity="0.1" stroke-miterlimit="10"/>
<path d="M820.715 129.05L719.948 111.042L773.755 97.1771L870.798 111.985L820.715 129.05Z" stroke="black" stroke-opacity="0.1" stroke-miterlimit="10"/>
<path d="M773.864 97.2545L694.025 85.0739L741.403 75.212L819.216 85.5531L773.864 97.2545Z" stroke="black" stroke-opacity="0.1" stroke-miterlimit="10"/>
<path d="M870.721 112.016L773.663 97.2079L819.015 85.522L912.162 97.888L870.721 112.016Z" stroke="black" stroke-opacity="0.1" stroke-miterlimit="10"/>
<path d="M819.216 85.5534L741.403 75.2124L782.396 66.6953L857.937 75.5679L819.216 85.5534Z" stroke="black" stroke-opacity="0.1" stroke-miterlimit="10"/>
<path d="M912.162 97.8888L819.015 85.5228L857.751 75.5372L947.018 86.0174L912.162 97.8888Z" stroke="black" stroke-opacity="0.1" stroke-miterlimit="10"/>
<path d="M948.797 151.958L820.685 129.065L870.783 111.985L991.367 130.379L948.797 151.958Z" stroke="black" stroke-opacity="0.1" stroke-miterlimit="10"/>
<path d="M991.32 130.426L870.704 112.031L912.147 97.9031L1025.74 112.99L991.32 130.426Z" stroke="black" stroke-opacity="0.1" stroke-miterlimit="10"/>
<path d="M1025.74 112.99L912.147 97.9031L947.003 86.0163L1054.14 98.5987L1025.74 112.99Z" stroke="black" stroke-opacity="0.1" stroke-miterlimit="10"/>
<path d="M1166.93 131.725L1025.43 112.944L1053.85 98.5529L1184.74 113.918L1166.93 131.725Z" stroke="black" stroke-opacity="0.1" stroke-miterlimit="10"/>
<path d="M367.316 17.9565L347.67 15.6533L381.583 13.381L401.91 15.5142L367.316 17.9565Z" stroke="black" stroke-opacity="0.1" stroke-miterlimit="10"/>
<path d="M388.616 20.4612L367.269 17.9571L401.863 15.5148L423.875 17.8179L388.616 20.4612Z" stroke="black" stroke-opacity="0.1" stroke-miterlimit="10"/>
<path d="M401.91 15.5159L381.583 13.3828L413.286 11.2651L434.138 13.2437L401.91 15.5159Z" stroke="black" stroke-opacity="0.1" stroke-miterlimit="10"/>
<path d="M423.875 17.8183L401.863 15.5151L434.091 13.2429L456.629 15.376L423.875 17.8183Z" stroke="black" stroke-opacity="0.1" stroke-miterlimit="10"/>
<path d="M434.061 13.2421L413.209 11.2635L442.903 9.28497L464.188 11.1244L434.061 13.2421Z" stroke="black" stroke-opacity="0.1" stroke-miterlimit="10"/>
<path d="M456.567 15.3751L434.03 13.242L464.142 11.1243L487.095 13.1029L456.567 15.3751Z" stroke="black" stroke-opacity="0.1" stroke-miterlimit="10"/>
<path d="M464.188 11.1245L442.903 9.28502L470.773 7.41467L492.398 9.13046L464.188 11.1245Z" stroke="black" stroke-opacity="0.1" stroke-miterlimit="10"/>
<path d="M487.095 13.1018L464.142 11.1232L492.352 9.12921L515.6 10.9687L487.095 13.1018Z" stroke="black" stroke-opacity="0.1" stroke-miterlimit="10"/>
<path d="M411.895 23.1968L388.616 20.4609L423.86 17.8176L447.802 20.3372L411.895 23.1968Z" stroke="black" stroke-opacity="0.1" stroke-miterlimit="10"/>
<path d="M437.354 26.1794L411.849 23.1806L447.757 20.3364L473.879 23.0724L437.354 26.1794Z" stroke="black" stroke-opacity="0.1" stroke-miterlimit="10"/>
<path d="M447.802 20.3361L423.86 17.8166L456.629 15.3743L481.068 17.6929L447.802 20.3361Z" stroke="black" stroke-opacity="0.1" stroke-miterlimit="10"/>
<path d="M473.879 23.072L447.757 20.336L481.021 17.6927L507.608 20.2123L473.879 23.072Z" stroke="black" stroke-opacity="0.1" stroke-miterlimit="10"/>
<path d="M480.991 17.7089L456.552 15.3903L487.08 13.1025L511.889 15.2511L480.991 17.7089Z" stroke="black" stroke-opacity="0.1" stroke-miterlimit="10"/>
<path d="M507.531 20.2136L480.944 17.694L511.844 15.2363L538.754 17.5703L507.531 20.2136Z" stroke="black" stroke-opacity="0.1" stroke-miterlimit="10"/>
<path d="M511.889 15.2528L487.08 13.1043L515.6 10.9711L540.671 12.9651L511.889 15.2528Z" stroke="black" stroke-opacity="0.1" stroke-miterlimit="10"/>
<path d="M538.754 17.5704L511.844 15.2363L540.609 12.9486L567.737 15.0972L538.754 17.5704Z" stroke="black" stroke-opacity="0.1" stroke-miterlimit="10"/>
<path d="M492.32 9.14615L470.696 7.43037L496.912 5.66821L518.783 7.27581L492.32 9.14615Z" stroke="black" stroke-opacity="0.1" stroke-miterlimit="10"/>
<path d="M515.523 10.9704L492.274 9.13099L518.738 7.26062L542.217 8.97641L515.523 10.9704Z" stroke="black" stroke-opacity="0.1" stroke-miterlimit="10"/>
<path d="M518.783 7.27716L496.912 5.66957L521.597 4.01562L543.671 5.51501L518.783 7.27716Z" stroke="black" stroke-opacity="0.1" stroke-miterlimit="10"/>
<path d="M542.217 8.97693L518.738 7.26115L543.624 5.51447L567.259 7.10659L542.217 8.97693Z" stroke="black" stroke-opacity="0.1" stroke-miterlimit="10"/>
<path d="M543.624 5.51284L521.55 4.02891L544.86 2.46771L567.058 3.85888L543.624 5.51284Z" stroke="black" stroke-opacity="0.1" stroke-miterlimit="10"/>
<path d="M567.197 7.12134L543.562 5.51377L567.011 3.8598L590.739 5.35918L567.197 7.12134Z" stroke="black" stroke-opacity="0.1" stroke-miterlimit="10"/>
<path d="M567.058 3.85965L544.86 2.46848L566.887 1L589.177 2.29845L567.058 3.85965Z" stroke="black" stroke-opacity="0.1" stroke-miterlimit="10"/>
<path d="M590.739 5.35874L567.011 3.85936L589.131 2.29816L612.888 3.70477L590.739 5.35874Z" stroke="black" stroke-opacity="0.1" stroke-miterlimit="10"/>
<path d="M540.594 12.9636L515.523 10.9696L542.202 8.97552L567.474 10.8304L540.594 12.9636Z" stroke="black" stroke-opacity="0.1" stroke-miterlimit="10"/>
<path d="M567.66 15.1129L540.532 12.9643L567.413 10.8157L594.649 12.8097L567.66 15.1129Z" stroke="black" stroke-opacity="0.1" stroke-miterlimit="10"/>
<path d="M567.474 10.8322L542.202 8.97734L567.243 7.10699L592.609 8.82278L567.474 10.8322Z" stroke="black" stroke-opacity="0.1" stroke-miterlimit="10"/>
<path d="M594.649 12.8096L567.413 10.8156L592.548 8.82159L619.844 10.6765L594.649 12.8096Z" stroke="black" stroke-opacity="0.1" stroke-miterlimit="10"/>
<path d="M592.563 8.83664L567.197 7.12086L590.723 5.3587L616.15 6.96627L592.563 8.83664Z" stroke="black" stroke-opacity="0.1" stroke-miterlimit="10"/>
<path d="M619.799 10.6766L592.501 8.82166L616.089 6.95129L643.372 8.66708L619.799 10.6766Z" stroke="black" stroke-opacity="0.1" stroke-miterlimit="10"/>
<path d="M616.15 6.96753L590.723 5.35996L612.888 3.70599L638.301 5.20537L616.15 6.96753Z" stroke="black" stroke-opacity="0.1" stroke-miterlimit="10"/>
<path d="M643.372 8.66684L616.089 6.95106L638.239 5.1889L665.476 6.79647L643.372 8.66684Z" stroke="black" stroke-opacity="0.1" stroke-miterlimit="10"/>
<path d="M465.44 29.473L437.385 26.1806L473.911 23.0736L502.553 26.0878L465.44 29.473Z" stroke="black" stroke-opacity="0.1" stroke-miterlimit="10"/>
<path d="M496.401 33.1046L465.378 29.4721L502.476 26.0715L533.995 29.3949L496.401 33.1046Z" stroke="black" stroke-opacity="0.1" stroke-miterlimit="10"/>
<path d="M502.553 26.0878L473.911 23.0736L507.623 20.2139L536.668 22.9654L502.553 26.0878Z" stroke="black" stroke-opacity="0.1" stroke-miterlimit="10"/>
<path d="M533.995 29.3949L502.476 26.0715L536.591 22.9645L568.418 25.9787L533.995 29.3949Z" stroke="black" stroke-opacity="0.1" stroke-miterlimit="10"/>
<path d="M536.591 22.9809L507.546 20.2294L538.771 17.5707L568.062 20.1058L536.591 22.9809Z" stroke="black" stroke-opacity="0.1" stroke-miterlimit="10"/>
<path d="M568.356 25.994L536.529 22.9643L568.001 20.0892L599.997 22.8561L568.356 25.994Z" stroke="black" stroke-opacity="0.1" stroke-miterlimit="10"/>
<path d="M568.062 20.1063L538.771 17.5713L567.769 15.0981L597.2 17.4322L568.062 20.1063Z" stroke="black" stroke-opacity="0.1" stroke-miterlimit="10"/>
<path d="M599.997 22.8577L568.001 20.0908L597.138 17.4321L629.181 19.9672L599.997 22.8577Z" stroke="black" stroke-opacity="0.1" stroke-miterlimit="10"/>
<path d="M530.841 37.1563L496.386 33.1064L533.978 29.3966L568.835 33.0446L530.841 37.1563Z" stroke="black" stroke-opacity="0.1" stroke-miterlimit="10"/>
<path d="M569.268 41.6678L530.763 37.1387L568.757 33.0425L607.51 37.1078L569.268 41.6678Z" stroke="black" stroke-opacity="0.1" stroke-miterlimit="10"/>
<path d="M568.834 33.0436L533.978 29.3957L568.418 25.9796L603.475 29.3029L568.834 33.0436Z" stroke="black" stroke-opacity="0.1" stroke-miterlimit="10"/>
<path d="M607.51 37.1088L568.758 33.0435L603.383 29.3028L642.181 32.9817L607.51 37.1088Z" stroke="black" stroke-opacity="0.1" stroke-miterlimit="10"/>
<path d="M603.398 29.3184L568.341 25.995L599.997 22.8571L635.101 25.8868L603.398 29.3184Z" stroke="black" stroke-opacity="0.1" stroke-miterlimit="10"/>
<path d="M642.104 32.9817L603.321 29.3028L635.009 25.8867L673.683 29.2255L642.104 32.9817Z" stroke="black" stroke-opacity="0.1" stroke-miterlimit="10"/>
<path d="M635.101 25.8866L599.997 22.8569L629.181 19.9664L664.208 22.7487L635.101 25.8866Z" stroke="black" stroke-opacity="0.1" stroke-miterlimit="10"/>
<path d="M673.683 29.2255L635.009 25.8867L664.131 22.7334L702.574 25.7785L673.683 29.2255Z" stroke="black" stroke-opacity="0.1" stroke-miterlimit="10"/>
<path d="M597.123 17.448L567.692 15.1139L594.681 12.8107L624.174 14.9748L597.123 17.448Z" stroke="black" stroke-opacity="0.1" stroke-miterlimit="10"/>
<path d="M629.104 19.9815L597.061 17.431L624.095 14.9578L656.109 17.3074L629.104 19.9815Z" stroke="black" stroke-opacity="0.1" stroke-miterlimit="10"/>
<path d="M624.174 14.9742L594.681 12.8102L619.876 10.6771L649.337 12.6711L624.174 14.9742Z" stroke="black" stroke-opacity="0.1" stroke-miterlimit="10"/>
<path d="M656.109 17.3074L624.095 14.9579L649.275 12.6702L681.166 14.8188L656.109 17.3074Z" stroke="black" stroke-opacity="0.1" stroke-miterlimit="10"/>
<path d="M649.292 12.6719L619.829 10.6779L643.402 8.68384L672.786 10.5233L649.292 12.6719Z" stroke="black" stroke-opacity="0.1" stroke-miterlimit="10"/>
<path d="M681.119 14.8338L649.23 12.6698L672.709 10.5212L704.429 12.5152L681.119 14.8338Z" stroke="black" stroke-opacity="0.1" stroke-miterlimit="10"/>
<path d="M672.786 10.5226L643.402 8.68318L665.491 6.79736L694.736 8.52862L672.786 10.5226Z" stroke="black" stroke-opacity="0.1" stroke-miterlimit="10"/>
<path d="M704.429 12.5157L672.709 10.5216L694.674 8.51215L726.161 10.3671L704.429 12.5157Z" stroke="black" stroke-opacity="0.1" stroke-miterlimit="10"/>
<path d="M664.131 22.7485L629.104 19.9816L656.109 17.3074L690.965 19.8425L664.131 22.7485Z" stroke="black" stroke-opacity="0.1" stroke-miterlimit="10"/>
<path d="M702.497 25.7931L664.054 22.748L690.888 19.842L729.022 22.6243L702.497 25.7931Z" stroke="black" stroke-opacity="0.1" stroke-miterlimit="10"/>
<path d="M690.965 19.8434L656.109 17.3084L681.149 14.8197L715.79 17.1693L690.965 19.8434Z" stroke="black" stroke-opacity="0.1" stroke-miterlimit="10"/>
<path d="M729.022 22.6253L690.888 19.843L715.713 17.1534L753.46 19.7193L729.022 22.6253Z" stroke="black" stroke-opacity="0.1" stroke-miterlimit="10"/>
<path d="M715.743 17.1695L681.104 14.8354L704.414 12.5168L738.76 14.6808L715.743 17.1695Z" stroke="black" stroke-opacity="0.1" stroke-miterlimit="10"/>
<path d="M753.413 19.7185L715.666 17.168L738.683 14.6794L775.997 17.0289L753.413 19.7185Z" stroke="black" stroke-opacity="0.1" stroke-miterlimit="10"/>
<path d="M738.76 14.6799L704.414 12.5159L726.161 10.3673L760.168 12.3768L738.76 14.6799Z" stroke="black" stroke-opacity="0.1" stroke-miterlimit="10"/>
<path d="M775.997 17.0296L738.683 14.68L760.091 12.3614L796.942 14.5409L775.997 17.0296Z" stroke="black" stroke-opacity="0.1" stroke-miterlimit="10"/>
<path d="M612.626 46.7548L569.299 41.6693L607.525 37.1093L650.883 41.6693L612.626 46.7548Z" stroke="black" stroke-opacity="0.1" stroke-miterlimit="10"/>
<path d="M661.611 52.5041L612.518 46.7385L650.776 41.653L699.574 46.7694L661.611 52.5041Z" stroke="black" stroke-opacity="0.1" stroke-miterlimit="10"/>
<path d="M650.883 41.6695L607.525 37.1095L642.197 32.9824L685.37 37.0786L650.883 41.6695Z" stroke="black" stroke-opacity="0.1" stroke-miterlimit="10"/>
<path d="M699.574 46.7698L650.776 41.6534L685.261 37.0625L733.566 41.6534L699.574 46.7698Z" stroke="black" stroke-opacity="0.1" stroke-miterlimit="10"/>
<path d="M685.293 37.0929L642.135 32.9967L673.715 29.225L716.547 32.9348L685.293 37.0929Z" stroke="black" stroke-opacity="0.1" stroke-miterlimit="10"/>
<path d="M733.504 41.6531L685.199 37.0777L716.439 32.9196L764.141 37.0313L733.504 41.6531Z" stroke="black" stroke-opacity="0.1" stroke-miterlimit="10"/>
<path d="M716.547 32.9342L673.715 29.2244L702.589 25.7774L744.99 29.1472L716.547 32.9342Z" stroke="black" stroke-opacity="0.1" stroke-miterlimit="10"/>
<path d="M764.141 37.0326L716.439 32.9209L744.896 29.1338L791.856 32.859L764.141 37.0326Z" stroke="black" stroke-opacity="0.1" stroke-miterlimit="10"/>
<path d="M717.722 59.0883L661.611 52.5034L699.574 46.7687L754.928 52.5962L717.722 59.0883Z" stroke="black" stroke-opacity="0.1" stroke-miterlimit="10"/>
<path d="M782.319 66.6792L717.583 59.0741L754.805 52.5819L818.134 59.2287L782.319 66.6792Z" stroke="black" stroke-opacity="0.1" stroke-miterlimit="10"/>
<path d="M754.928 52.5969L699.574 46.7694L733.566 41.653L788.007 46.8158L754.928 52.5969Z" stroke="black" stroke-opacity="0.1" stroke-miterlimit="10"/>
<path d="M818.134 59.2277L754.805 52.581L787.884 46.7999L849.698 52.6583L818.134 59.2277Z" stroke="black" stroke-opacity="0.1" stroke-miterlimit="10"/>
<path d="M787.961 46.8316L733.504 41.6533L764.126 37.0316L817.562 41.6533L787.961 46.8316Z" stroke="black" stroke-opacity="0.1" stroke-miterlimit="10"/>
<path d="M849.653 52.6738L787.823 46.8155L817.423 41.6372L877.677 46.8464L849.653 52.6738Z" stroke="black" stroke-opacity="0.1" stroke-miterlimit="10"/>
<path d="M817.562 41.6531L764.126 37.0313L791.856 32.8577L844.196 37.0004L817.562 41.6531Z" stroke="black" stroke-opacity="0.1" stroke-miterlimit="10"/>
<path d="M877.677 46.8466L817.423 41.6375L844.072 36.9847L902.748 41.6375L877.677 46.8466Z" stroke="black" stroke-opacity="0.1" stroke-miterlimit="10"/>
<path d="M744.911 29.1485L702.512 25.7942L729.037 22.6254L770.911 25.686L744.911 29.1485Z" stroke="black" stroke-opacity="0.1" stroke-miterlimit="10"/>
<path d="M791.779 32.8583L744.804 29.1485L770.819 25.686L817.006 29.0557L791.779 32.8583Z" stroke="black" stroke-opacity="0.1" stroke-miterlimit="10"/>
<path d="M770.911 25.6861L729.037 22.6256L753.475 19.7195L794.778 22.5174L770.911 25.6861Z" stroke="black" stroke-opacity="0.1" stroke-miterlimit="10"/>
<path d="M817.006 29.0557L770.819 25.686L794.67 22.5017L840.053 25.5778L817.006 29.0557Z" stroke="black" stroke-opacity="0.1" stroke-miterlimit="10"/>
<path d="M794.731 22.5165L753.429 19.7186L776.027 17.0291L816.712 19.595L794.731 22.5165Z" stroke="black" stroke-opacity="0.1" stroke-miterlimit="10"/>
<path d="M840.007 25.5926L794.638 22.5166L816.62 19.5951L861.152 22.3929L840.007 25.5926Z" stroke="black" stroke-opacity="0.1" stroke-miterlimit="10"/>
<path d="M816.712 19.5959L776.027 17.03L796.957 14.5413L837.022 16.8908L816.712 19.5959Z" stroke="black" stroke-opacity="0.1" stroke-miterlimit="10"/>
<path d="M861.152 22.3939L816.62 19.5961L836.915 16.891L880.613 19.4569L861.152 22.3939Z" stroke="black" stroke-opacity="0.1" stroke-miterlimit="10"/>
<path d="M844.119 37.0165L791.764 32.8584L817.006 29.0558L868.217 32.7966L844.119 37.0165Z" stroke="black" stroke-opacity="0.1" stroke-miterlimit="10"/>
<path d="M902.672 41.6523L843.978 36.9996L868.093 32.7797L925.209 36.9532L902.672 41.6523Z" stroke="black" stroke-opacity="0.1" stroke-miterlimit="10"/>
<path d="M868.217 32.796L817.006 29.0553L840.037 25.5773L890.135 28.9625L868.217 32.796Z" stroke="black" stroke-opacity="0.1" stroke-miterlimit="10"/>
<path d="M925.209 36.9539L868.093 32.7804L890.011 28.9624L945.581 32.7186L925.209 36.9539Z" stroke="black" stroke-opacity="0.1" stroke-miterlimit="10"/>
<path d="M890.105 28.977L840.007 25.5918L861.152 22.3921L910.121 25.4836L890.105 28.977Z" stroke="black" stroke-opacity="0.1" stroke-miterlimit="10"/>
<path d="M945.551 32.7351L889.981 28.9634L909.999 25.47L964.068 28.8862L945.551 32.7351Z" stroke="black" stroke-opacity="0.1" stroke-miterlimit="10"/>
<path d="M910.121 25.4846L861.152 22.3931L880.598 19.4562L928.454 22.2849L910.121 25.4846Z" stroke="black" stroke-opacity="0.1" stroke-miterlimit="10"/>
<path d="M964.068 28.885L909.999 25.4689L928.346 22.2692L980.98 25.3607L964.068 28.885Z" stroke="black" stroke-opacity="0.1" stroke-miterlimit="10"/>
<path d="M857.937 75.5506L782.396 66.678L818.211 59.2275L891.403 66.9253L857.937 75.5506Z" stroke="black" stroke-opacity="0.1" stroke-miterlimit="10"/>
<path d="M947.003 86.0007L857.751 75.5204L891.217 66.8951L976.712 75.876L947.003 86.0007Z" stroke="black" stroke-opacity="0.1" stroke-miterlimit="10"/>
<path d="M891.403 66.9266L818.211 59.2288L849.775 52.6747L920.602 59.3833L891.403 66.9266Z" stroke="black" stroke-opacity="0.1" stroke-miterlimit="10"/>
<path d="M976.712 75.8764L891.217 66.8956L920.416 59.3678L1002.34 67.1429L976.712 75.8764Z" stroke="black" stroke-opacity="0.1" stroke-miterlimit="10"/>
<path d="M920.555 59.4138L849.714 52.6898L877.754 46.8623L946.277 52.7825L920.555 59.4138Z" stroke="black" stroke-opacity="0.1" stroke-miterlimit="10"/>
<path d="M1002.31 67.1573L920.371 59.3821L946.091 52.7509L1024.65 59.5522L1002.31 67.1573Z" stroke="black" stroke-opacity="0.1" stroke-miterlimit="10"/>
<path d="M946.277 52.7821L877.754 46.8619L902.81 41.6372L969.077 46.8928L946.277 52.7821Z" stroke="black" stroke-opacity="0.1" stroke-miterlimit="10"/>
<path d="M1024.65 59.5533L946.091 52.752L968.906 46.8782L1044.29 52.8448L1024.65 59.5533Z" stroke="black" stroke-opacity="0.1" stroke-miterlimit="10"/>
<path d="M1054.11 98.5832L946.988 86.0008L976.697 75.8761L1077.93 86.5109L1054.11 98.5832Z" stroke="black" stroke-opacity="0.1" stroke-miterlimit="10"/>
<path d="M1184.71 113.901L1053.83 98.5366L1077.67 86.4798L1199.36 99.2631L1184.71 113.901Z" stroke="black" stroke-opacity="0.1" stroke-miterlimit="10"/>
<path d="M1077.93 86.511L976.697 75.8762L1002.33 67.1427L1098.21 76.2317L1077.93 86.511Z" stroke="black" stroke-opacity="0.1" stroke-miterlimit="10"/>
<path d="M1199.36 99.2636L1077.67 86.4802L1097.96 76.2164L1211.64 86.9903L1199.36 99.2636Z" stroke="black" stroke-opacity="0.1" stroke-miterlimit="10"/>
<path d="M1098.19 76.2625L1002.3 67.1735L1024.65 59.5529L1115.66 67.4053L1098.19 76.2625Z" stroke="black" stroke-opacity="0.1" stroke-miterlimit="10"/>
<path d="M1211.64 87.0213L1097.95 76.232L1115.41 67.3903L1222.07 76.603L1211.64 87.0213Z" stroke="black" stroke-opacity="0.1" stroke-miterlimit="10"/>
<path d="M1115.66 67.4055L1024.65 59.5531L1044.29 52.8445L1130.86 59.7077L1115.66 67.4055Z" stroke="black" stroke-opacity="0.1" stroke-miterlimit="10"/>
<path d="M1222.07 76.603L1115.41 67.3904L1130.64 59.6925L1231.02 67.6377L1222.07 76.603Z" stroke="black" stroke-opacity="0.1" stroke-miterlimit="10"/>
<path d="M969 46.9082L902.733 41.6527L925.271 36.9691L989.372 41.6527L969 46.9082Z" stroke="black" stroke-opacity="0.1" stroke-miterlimit="10"/>
<path d="M1044.23 52.8594L968.829 46.8928L989.218 41.6372L1061.64 46.9237L1044.23 52.8594Z" stroke="black" stroke-opacity="0.1" stroke-miterlimit="10"/>
<path d="M989.372 41.6519L925.271 36.9683L945.658 32.7329L1007.69 36.9219L989.372 41.6519Z" stroke="black" stroke-opacity="0.1" stroke-miterlimit="10"/>
<path d="M1061.64 46.9231L989.218 41.6367L1007.52 36.9067L1077.19 41.6212L1061.64 46.9231Z" stroke="black" stroke-opacity="0.1" stroke-miterlimit="10"/>
<path d="M1007.66 36.9377L945.628 32.7332L964.145 28.8843L1024.2 32.6714L1007.66 36.9377Z" stroke="black" stroke-opacity="0.1" stroke-miterlimit="10"/>
<path d="M1077.17 41.6378L1007.5 36.9232L1024.04 32.657L1091.11 36.8923L1077.17 41.6378Z" stroke="black" stroke-opacity="0.1" stroke-miterlimit="10"/>
<path d="M1024.2 32.6725L964.145 28.8854L981.041 25.3766L1039.22 28.7927L1024.2 32.6725Z" stroke="black" stroke-opacity="0.1" stroke-miterlimit="10"/>
<path d="M1091.11 36.8923L1024.04 32.657L1039.07 28.7926L1103.71 32.5951L1091.11 36.8923Z" stroke="black" stroke-opacity="0.1" stroke-miterlimit="10"/>
<path d="M1130.79 59.723L1044.21 52.8599L1061.64 46.9242L1144.15 52.9526L1130.79 59.723Z" stroke="black" stroke-opacity="0.1" stroke-miterlimit="10"/>
<path d="M1230.97 67.6529L1130.56 59.7078L1143.93 52.9374L1238.76 59.8624L1230.97 67.6529Z" stroke="black" stroke-opacity="0.1" stroke-miterlimit="10"/>
<path d="M1144.15 52.9521L1061.64 46.9237L1077.17 41.6372L1155.97 46.97L1144.15 52.9521Z" stroke="black" stroke-opacity="0.1" stroke-miterlimit="10"/>
<path d="M1238.76 59.8628L1143.93 52.9378L1155.77 46.9557L1245.6 53.0305L1238.76 59.8628Z" stroke="black" stroke-opacity="0.1" stroke-miterlimit="10"/>
<path d="M1155.97 46.9871L1077.16 41.6542L1091.11 36.8933L1166.51 41.6388L1155.97 46.9871Z" stroke="black" stroke-opacity="0.1" stroke-miterlimit="10"/>
<path d="M1245.61 53.0451L1155.76 46.9703L1166.31 41.622L1251.66 47.0012L1245.61 53.0451Z" stroke="black" stroke-opacity="0.1" stroke-miterlimit="10"/>
<path d="M1166.51 41.6377L1091.11 36.8923L1103.71 32.5951L1175.96 36.8459L1166.51 41.6377Z" stroke="black" stroke-opacity="0.1" stroke-miterlimit="10"/>
</svg>
