<svg width="1048" height="178" viewBox="0 0 1048 178" fill="none" xmlns="http://www.w3.org/2000/svg">
<mask id="path-1-outside-1_8_2978" maskUnits="userSpaceOnUse" x="0" y="0" width="1048" height="178" fill="black">
<rect fill="white" width="1048" height="178"/>
<path d="M1 53.0495C1 45.8675 2.37032 39.1293 5.11097 32.8349C7.85162 26.5406 11.5595 21.0532 16.2348 16.3728C20.9906 11.6116 26.5122 7.85924 32.7996 5.11554C39.0869 2.37185 45.8176 1 52.9917 1H132.551V35.74H52.9917C50.5735 35.74 48.3165 36.1839 46.2207 37.0715C44.1249 37.9592 42.2709 39.21 40.6588 40.8239C39.1272 42.3572 37.9181 44.1729 37.0314 46.271C36.1448 48.3691 35.7014 50.6286 35.7014 53.0495C35.7014 55.4704 36.1448 57.7703 37.0314 59.9491C37.9181 62.0472 39.1272 63.9033 40.6588 65.5172C42.2709 67.0504 44.1249 68.2609 46.2207 69.1486C48.3165 70.0362 50.5735 70.4801 52.9917 70.4801H87.6931C94.8671 70.4801 101.598 71.8519 107.885 74.5956C114.253 77.2586 119.775 80.9707 124.45 85.7318C129.206 90.4122 132.914 95.9399 135.574 102.315C138.314 108.609 139.685 115.348 139.685 122.53C139.685 129.712 138.314 136.45 135.574 142.744C132.914 149.039 129.206 154.566 124.45 159.327C119.775 164.008 114.253 167.72 107.885 170.464C101.598 173.207 94.8671 174.579 87.6931 174.579H10.6729V139.839H87.6931C90.1113 139.839 92.3683 139.395 94.4641 138.508C96.5599 137.62 98.3736 136.409 99.9051 134.876C101.517 133.262 102.767 131.406 103.653 129.308C104.54 127.21 104.983 124.95 104.983 122.53C104.983 120.109 104.54 117.849 103.653 115.751C102.767 113.653 101.517 111.837 99.9051 110.304C98.3736 108.69 96.5599 107.439 94.4641 106.552C92.3683 105.664 90.1113 105.22 87.6931 105.22H52.9917C45.8176 105.22 39.0869 103.848 32.7996 101.105C26.5122 98.3608 20.9906 94.6488 16.2348 89.9684C11.5595 85.2072 7.85162 79.6795 5.11097 73.3851C2.37032 67.0101 1 60.2315 1 53.0495Z"/>
<path d="M197.238 174.579H162.537V1H197.238V70.4801H266.52V1H301.222V174.579H266.52V105.22H197.238V174.579Z"/>
<path d="M452.36 174.579H333.505V1H452.36V35.74H368.206V70.4801H425.155V105.22H368.206V139.839H452.36V174.579Z"/>
<path d="M511.365 35.74V105.22H546.066C550.822 105.22 555.296 104.332 559.487 102.557C563.679 100.701 567.347 98.1995 570.49 95.0523C573.634 91.9051 576.092 88.2334 577.866 84.0371C579.72 79.7602 580.647 75.2412 580.647 70.4801C580.647 65.7189 579.72 61.2403 577.866 57.044C576.092 52.7671 573.634 49.055 570.49 45.9078C567.347 42.7607 563.679 40.2994 559.487 38.5241C555.296 36.668 550.822 35.74 546.066 35.74H511.365ZM511.365 174.579H476.663V1H546.066C552.434 1 558.56 1.84732 564.445 3.54195C570.329 5.15589 575.81 7.4961 580.889 10.5626C586.047 13.5484 590.723 17.1797 594.914 21.4567C599.186 25.6529 602.814 30.3333 605.796 35.4979C608.859 40.6625 611.197 46.1903 612.809 52.0812C614.502 57.972 615.348 64.105 615.348 70.4801C615.348 76.4516 614.582 82.2618 613.051 87.9106C611.6 93.5594 609.464 98.9257 606.643 104.01C603.902 109.094 600.516 113.774 596.486 118.051C592.456 122.328 587.942 126.04 582.944 129.187L602.169 174.579H565.291L550.177 139.597L511.365 139.839V174.579Z"/>
<path d="M810.256 124.95C810.256 132.133 808.886 138.911 806.146 145.286C803.485 151.58 799.778 157.108 795.022 161.869C790.346 166.55 784.825 170.262 778.457 173.005C772.17 175.668 765.439 177 758.265 177C751.816 177 745.609 175.87 739.645 173.611C733.76 171.351 728.44 168.043 723.684 163.685C718.928 168.043 713.568 171.351 707.603 173.611C701.638 175.87 695.431 177 688.983 177C681.809 177 675.038 175.668 668.67 173.005C662.382 170.262 656.861 166.55 652.105 161.869C647.43 157.108 643.722 151.58 640.981 145.286C638.321 138.911 636.991 132.133 636.991 124.95V1H671.693V124.95C671.693 127.371 672.136 129.671 673.023 131.85C673.909 133.948 675.118 135.804 676.65 137.418C678.262 138.951 680.116 140.162 682.212 141.05C684.308 141.937 686.565 142.381 688.983 142.381C691.401 142.381 693.658 141.937 695.754 141.05C697.85 140.162 699.663 138.951 701.195 137.418C702.807 135.804 704.056 133.948 704.943 131.85C705.83 129.671 706.273 127.371 706.273 124.95V1H740.975V124.95C740.975 127.371 741.418 129.671 742.305 131.85C743.191 133.948 744.4 135.804 745.932 137.418C747.544 138.951 749.398 140.162 751.494 141.05C753.59 141.937 755.847 142.381 758.265 142.381C760.683 142.381 762.94 141.937 765.036 141.05C767.132 140.162 768.945 138.951 770.477 137.418C772.089 135.804 773.338 133.948 774.225 131.85C775.192 129.671 775.676 127.371 775.676 124.95V1H810.256V124.95Z"/>
<path d="M876.032 174.579H841.331V1H876.032V174.579Z"/>
<path d="M1047 174.579H1009.88L943.017 60.3122V174.579H908.315V1H945.435L1012.3 115.388V1H1047V174.579Z"/>
</mask>
<path d="M1 53.0495C1 45.8675 2.37032 39.1293 5.11097 32.8349C7.85162 26.5406 11.5595 21.0532 16.2348 16.3728C20.9906 11.6116 26.5122 7.85924 32.7996 5.11554C39.0869 2.37185 45.8176 1 52.9917 1H132.551V35.74H52.9917C50.5735 35.74 48.3165 36.1839 46.2207 37.0715C44.1249 37.9592 42.2709 39.21 40.6588 40.8239C39.1272 42.3572 37.9181 44.1729 37.0314 46.271C36.1448 48.3691 35.7014 50.6286 35.7014 53.0495C35.7014 55.4704 36.1448 57.7703 37.0314 59.9491C37.9181 62.0472 39.1272 63.9033 40.6588 65.5172C42.2709 67.0504 44.1249 68.2609 46.2207 69.1486C48.3165 70.0362 50.5735 70.4801 52.9917 70.4801H87.6931C94.8671 70.4801 101.598 71.8519 107.885 74.5956C114.253 77.2586 119.775 80.9707 124.45 85.7318C129.206 90.4122 132.914 95.9399 135.574 102.315C138.314 108.609 139.685 115.348 139.685 122.53C139.685 129.712 138.314 136.45 135.574 142.744C132.914 149.039 129.206 154.566 124.45 159.327C119.775 164.008 114.253 167.72 107.885 170.464C101.598 173.207 94.8671 174.579 87.6931 174.579H10.6729V139.839H87.6931C90.1113 139.839 92.3683 139.395 94.4641 138.508C96.5599 137.62 98.3736 136.409 99.9051 134.876C101.517 133.262 102.767 131.406 103.653 129.308C104.54 127.21 104.983 124.95 104.983 122.53C104.983 120.109 104.54 117.849 103.653 115.751C102.767 113.653 101.517 111.837 99.9051 110.304C98.3736 108.69 96.5599 107.439 94.4641 106.552C92.3683 105.664 90.1113 105.22 87.6931 105.22H52.9917C45.8176 105.22 39.0869 103.848 32.7996 101.105C26.5122 98.3608 20.9906 94.6488 16.2348 89.9684C11.5595 85.2072 7.85162 79.6795 5.11097 73.3851C2.37032 67.0101 1 60.2315 1 53.0495Z" fill="black"/>
<path d="M197.238 174.579H162.537V1H197.238V70.4801H266.52V1H301.222V174.579H266.52V105.22H197.238V174.579Z" fill="black"/>
<path d="M452.36 174.579H333.505V1H452.36V35.74H368.206V70.4801H425.155V105.22H368.206V139.839H452.36V174.579Z" fill="black"/>
<path d="M511.365 35.74V105.22H546.066C550.822 105.22 555.296 104.332 559.487 102.557C563.679 100.701 567.347 98.1995 570.49 95.0523C573.634 91.9051 576.092 88.2334 577.866 84.0371C579.72 79.7602 580.647 75.2412 580.647 70.4801C580.647 65.7189 579.72 61.2403 577.866 57.044C576.092 52.7671 573.634 49.055 570.49 45.9078C567.347 42.7607 563.679 40.2994 559.487 38.5241C555.296 36.668 550.822 35.74 546.066 35.74H511.365ZM511.365 174.579H476.663V1H546.066C552.434 1 558.56 1.84732 564.445 3.54195C570.329 5.15589 575.81 7.4961 580.889 10.5626C586.047 13.5484 590.723 17.1797 594.914 21.4567C599.186 25.6529 602.814 30.3333 605.796 35.4979C608.859 40.6625 611.197 46.1903 612.809 52.0812C614.502 57.972 615.348 64.105 615.348 70.4801C615.348 76.4516 614.582 82.2618 613.051 87.9106C611.6 93.5594 609.464 98.9257 606.643 104.01C603.902 109.094 600.516 113.774 596.486 118.051C592.456 122.328 587.942 126.04 582.944 129.187L602.169 174.579H565.291L550.177 139.597L511.365 139.839V174.579Z" fill="black"/>
<path d="M810.256 124.95C810.256 132.133 808.886 138.911 806.146 145.286C803.485 151.58 799.778 157.108 795.022 161.869C790.346 166.55 784.825 170.262 778.457 173.005C772.17 175.668 765.439 177 758.265 177C751.816 177 745.609 175.87 739.645 173.611C733.76 171.351 728.44 168.043 723.684 163.685C718.928 168.043 713.568 171.351 707.603 173.611C701.638 175.87 695.431 177 688.983 177C681.809 177 675.038 175.668 668.67 173.005C662.382 170.262 656.861 166.55 652.105 161.869C647.43 157.108 643.722 151.58 640.981 145.286C638.321 138.911 636.991 132.133 636.991 124.95V1H671.693V124.95C671.693 127.371 672.136 129.671 673.023 131.85C673.909 133.948 675.118 135.804 676.65 137.418C678.262 138.951 680.116 140.162 682.212 141.05C684.308 141.937 686.565 142.381 688.983 142.381C691.401 142.381 693.658 141.937 695.754 141.05C697.85 140.162 699.663 138.951 701.195 137.418C702.807 135.804 704.056 133.948 704.943 131.85C705.83 129.671 706.273 127.371 706.273 124.95V1H740.975V124.95C740.975 127.371 741.418 129.671 742.305 131.85C743.191 133.948 744.4 135.804 745.932 137.418C747.544 138.951 749.398 140.162 751.494 141.05C753.59 141.937 755.847 142.381 758.265 142.381C760.683 142.381 762.94 141.937 765.036 141.05C767.132 140.162 768.945 138.951 770.477 137.418C772.089 135.804 773.338 133.948 774.225 131.85C775.192 129.671 775.676 127.371 775.676 124.95V1H810.256V124.95Z" fill="black"/>
<path d="M876.032 174.579H841.331V1H876.032V174.579Z" fill="black"/>
<path d="M1047 174.579H1009.88L943.017 60.3122V174.579H908.315V1H945.435L1012.3 115.388V1H1047V174.579Z" fill="black"/>
<path d="M1 53.0495C1 45.8675 2.37032 39.1293 5.11097 32.8349C7.85162 26.5406 11.5595 21.0532 16.2348 16.3728C20.9906 11.6116 26.5122 7.85924 32.7996 5.11554C39.0869 2.37185 45.8176 1 52.9917 1H132.551V35.74H52.9917C50.5735 35.74 48.3165 36.1839 46.2207 37.0715C44.1249 37.9592 42.2709 39.21 40.6588 40.8239C39.1272 42.3572 37.9181 44.1729 37.0314 46.271C36.1448 48.3691 35.7014 50.6286 35.7014 53.0495C35.7014 55.4704 36.1448 57.7703 37.0314 59.9491C37.9181 62.0472 39.1272 63.9033 40.6588 65.5172C42.2709 67.0504 44.1249 68.2609 46.2207 69.1486C48.3165 70.0362 50.5735 70.4801 52.9917 70.4801H87.6931C94.8671 70.4801 101.598 71.8519 107.885 74.5956C114.253 77.2586 119.775 80.9707 124.45 85.7318C129.206 90.4122 132.914 95.9399 135.574 102.315C138.314 108.609 139.685 115.348 139.685 122.53C139.685 129.712 138.314 136.45 135.574 142.744C132.914 149.039 129.206 154.566 124.45 159.327C119.775 164.008 114.253 167.72 107.885 170.464C101.598 173.207 94.8671 174.579 87.6931 174.579H10.6729V139.839H87.6931C90.1113 139.839 92.3683 139.395 94.4641 138.508C96.5599 137.62 98.3736 136.409 99.9051 134.876C101.517 133.262 102.767 131.406 103.653 129.308C104.54 127.21 104.983 124.95 104.983 122.53C104.983 120.109 104.54 117.849 103.653 115.751C102.767 113.653 101.517 111.837 99.9051 110.304C98.3736 108.69 96.5599 107.439 94.4641 106.552C92.3683 105.664 90.1113 105.22 87.6931 105.22H52.9917C45.8176 105.22 39.0869 103.848 32.7996 101.105C26.5122 98.3608 20.9906 94.6488 16.2348 89.9684C11.5595 85.2072 7.85162 79.6795 5.11097 73.3851C2.37032 67.0101 1 60.2315 1 53.0495Z" stroke="black" stroke-width="2" mask="url(#path-1-outside-1_8_2978)"/>
<path d="M197.238 174.579H162.537V1H197.238V70.4801H266.52V1H301.222V174.579H266.52V105.22H197.238V174.579Z" stroke="black" stroke-width="2" mask="url(#path-1-outside-1_8_2978)"/>
<path d="M452.36 174.579H333.505V1H452.36V35.74H368.206V70.4801H425.155V105.22H368.206V139.839H452.36V174.579Z" stroke="black" stroke-width="2" mask="url(#path-1-outside-1_8_2978)"/>
<path d="M511.365 35.74V105.22H546.066C550.822 105.22 555.296 104.332 559.487 102.557C563.679 100.701 567.347 98.1995 570.49 95.0523C573.634 91.9051 576.092 88.2334 577.866 84.0371C579.72 79.7602 580.647 75.2412 580.647 70.4801C580.647 65.7189 579.72 61.2403 577.866 57.044C576.092 52.7671 573.634 49.055 570.49 45.9078C567.347 42.7607 563.679 40.2994 559.487 38.5241C555.296 36.668 550.822 35.74 546.066 35.74H511.365ZM511.365 174.579H476.663V1H546.066C552.434 1 558.56 1.84732 564.445 3.54195C570.329 5.15589 575.81 7.4961 580.889 10.5626C586.047 13.5484 590.723 17.1797 594.914 21.4567C599.186 25.6529 602.814 30.3333 605.796 35.4979C608.859 40.6625 611.197 46.1903 612.809 52.0812C614.502 57.972 615.348 64.105 615.348 70.4801C615.348 76.4516 614.582 82.2618 613.051 87.9106C611.6 93.5594 609.464 98.9257 606.643 104.01C603.902 109.094 600.516 113.774 596.486 118.051C592.456 122.328 587.942 126.04 582.944 129.187L602.169 174.579H565.291L550.177 139.597L511.365 139.839V174.579Z" stroke="black" stroke-width="2" mask="url(#path-1-outside-1_8_2978)"/>
<path d="M810.256 124.95C810.256 132.133 808.886 138.911 806.146 145.286C803.485 151.58 799.778 157.108 795.022 161.869C790.346 166.55 784.825 170.262 778.457 173.005C772.17 175.668 765.439 177 758.265 177C751.816 177 745.609 175.87 739.645 173.611C733.76 171.351 728.44 168.043 723.684 163.685C718.928 168.043 713.568 171.351 707.603 173.611C701.638 175.87 695.431 177 688.983 177C681.809 177 675.038 175.668 668.67 173.005C662.382 170.262 656.861 166.55 652.105 161.869C647.43 157.108 643.722 151.58 640.981 145.286C638.321 138.911 636.991 132.133 636.991 124.95V1H671.693V124.95C671.693 127.371 672.136 129.671 673.023 131.85C673.909 133.948 675.118 135.804 676.65 137.418C678.262 138.951 680.116 140.162 682.212 141.05C684.308 141.937 686.565 142.381 688.983 142.381C691.401 142.381 693.658 141.937 695.754 141.05C697.85 140.162 699.663 138.951 701.195 137.418C702.807 135.804 704.056 133.948 704.943 131.85C705.83 129.671 706.273 127.371 706.273 124.95V1H740.975V124.95C740.975 127.371 741.418 129.671 742.305 131.85C743.191 133.948 744.4 135.804 745.932 137.418C747.544 138.951 749.398 140.162 751.494 141.05C753.59 141.937 755.847 142.381 758.265 142.381C760.683 142.381 762.94 141.937 765.036 141.05C767.132 140.162 768.945 138.951 770.477 137.418C772.089 135.804 773.338 133.948 774.225 131.85C775.192 129.671 775.676 127.371 775.676 124.95V1H810.256V124.95Z" stroke="black" stroke-width="2" mask="url(#path-1-outside-1_8_2978)"/>
<path d="M876.032 174.579H841.331V1H876.032V174.579Z" stroke="black" stroke-width="2" mask="url(#path-1-outside-1_8_2978)"/>
<path d="M1047 174.579H1009.88L943.017 60.3122V174.579H908.315V1H945.435L1012.3 115.388V1H1047V174.579Z" stroke="black" stroke-width="2" mask="url(#path-1-outside-1_8_2978)"/>
</svg>
